<svg xmlns="http://www.w3.org/2000/svg" xmlns:xlink="http://www.w3.org/1999/xlink" version="1.1" id="Calque_1" x="0px" y="0px" width="479.28px" height="71.333px" viewBox="0 0 479.28 71.333" enable-background="new 0 0 479.28 71.333" xml:space="preserve"><polygon fill="#0A0029" points="35.259,68.437 3.373,68.437 3.373,67.188 14.805,67.188 14.805,4.31 3.373,4.31 3.373,3.062 35.259,3.062 35.259,4.31 23.739,4.31 23.739,34.056 58.573,34.056 58.573,4.31 47.05,4.31 47.05,3.062 79.023,3.062 79.023,4.31 67.503,4.31 67.503,67.188 79.023,67.188 79.023,68.437 47.05,68.437 47.05,67.188 58.573,67.188 58.573,35.303 23.739,35.303 23.739,67.188 35.259,67.188 "/><path fill="#0A0029" d="M101.156,35.751c0,21.61,10.089,32.86,24.558,32.86c14.561,0,24.565-11.25,24.565-32.86c0-21.609-10.004-32.866-24.565-32.866C111.245,2.885,101.156,14.142,101.156,35.751 M160.545,35.751c0,20.986-16.163,34.118-34.832,34.118c-18.577,0-34.744-13.216-34.744-34.206c0-20.896,16.167-34.031,34.744-34.031C144.383,1.632,160.545,14.667,160.545,35.751"/><path fill="#0A0029" d="M194.735,36.287h4.11c9.111,0,17.325-6.343,17.325-16.253c0-8.755-3.488-15.724-16.348-15.724h-5.088V36.287z M206.881,68.437h-32.516v-1.249h11.437V4.31h-11.437V3.062h29.752c13.928,0,22.326,6.701,22.326,16.433c0,7.771-6.429,14.022-15.362,16.609l23.67,31.083h6.345v1.249h-15.727l-23.584-30.903h-7.05v29.654h12.146V68.437z"/><path fill="#0A0029" d="M280.989,14.758l-10.715,27.149h21.256L280.989,14.758z M273.846,68.437h-25.805v-1.249h10.707L284.2,3.062h0.985l25.279,64.125h9.383v1.249h-29.566v-1.249h11.078l-9.296-24.023h-22.239l-9.555,24.023h13.576V68.437z"/><path fill="#0A0029" d="M380.017,9.846c-4.286-3.746-9.191-6.961-15.988-6.961c-15.808,0-25.271,12.138-25.271,31.614c0,24.112,12.862,34.112,25.544,34.112c10.805,0,15.809-4.822,19.472-9.821l5.444-14.376l1.072,0.183v17.678c-5.267,2.95-15.092,7.595-25.988,7.595c-21.521,0-35.994-14.111-35.994-34.118c0-21.077,15.809-34.119,35.631-34.119c9.475,0,18.849,3.662,23.851,5.809l2.139,16.163l-0.982,0.359L380.017,9.846z"/><polygon fill="#0A0029" points="466.538,48.966 467.606,48.966 463.772,67.098 463.772,68.437 406.787,68.437 406.787,67.184 418.224,67.184 418.224,4.309 406.787,4.309 406.787,3.062 461.444,3.062 461.444,4.309 464.127,21.633 463.049,21.633 449.48,4.309 427.147,4.309 427.147,34.054 447.865,34.054 447.865,22.618 449.208,22.618 449.208,47.54 447.865,47.54 447.865,35.306 427.147,35.306 427.147,67.184 452.162,67.184 "/></svg>
